<svg width="197" height="106" viewBox="0 0 197 106" fill="none" xmlns="http://www.w3.org/2000/svg">
<mask id="path-1-inside-1_2_9" fill="white">
<path d="M85.9244 33.3069C81.723 26.0603 75.2729 20.3817 67.5524 17.1323C59.832 13.883 51.2624 13.2402 43.1435 15.3014C35.0247 17.3627 27.7996 22.0155 22.5642 28.5542C17.3287 35.0929 14.3686 43.1606 14.1328 51.5337C13.897 59.9068 16.3984 68.1283 21.2575 74.9513C26.1166 81.7743 33.0684 86.8264 41.0583 89.3413C49.0483 91.8562 57.6405 91.6967 65.5316 88.887C73.4227 86.0774 80.1822 80.7707 84.7848 73.7721L52.6175 52.6175L85.9244 33.3069Z"/>
</mask>
<path d="M85.9244 33.3069C81.723 26.0603 75.2729 20.3817 67.5524 17.1323C59.832 13.883 51.2624 13.2402 43.1435 15.3014C35.0247 17.3627 27.7996 22.0155 22.5642 28.5542C17.3287 35.0929 14.3686 43.1606 14.1328 51.5337C13.897 59.9068 16.3984 68.1283 21.2575 74.9513C26.1166 81.7743 33.0684 86.8264 41.0583 89.3413C49.0483 91.8562 57.6405 91.6967 65.5316 88.887C73.4227 86.0774 80.1822 80.7707 84.7848 73.7721L52.6175 52.6175L85.9244 33.3069Z" fill="#FFC700" stroke="black" stroke-width="6" mask="url(#path-1-inside-1_2_9)"/>
<path d="M148.586 58.6948C148.586 61.3677 148.081 63.8833 147.07 66.2417C146.059 68.5776 144.678 70.6216 142.926 72.3735C141.174 74.103 139.119 75.4731 136.76 76.4839C134.424 77.4946 131.92 78 129.247 78C126.574 78 124.059 77.4946 121.7 76.4839C119.364 75.4731 117.32 74.103 115.568 72.3735C113.839 70.6216 112.469 68.5776 111.458 66.2417C110.447 63.8833 109.942 61.3677 109.942 58.6948V29.6865H119.578V58.6948C119.578 60.02 119.825 61.2666 120.319 62.4346C120.835 63.6025 121.532 64.6245 122.408 65.5005C123.284 66.3765 124.306 67.0727 125.474 67.5893C126.664 68.0835 127.922 68.3306 129.247 68.3306C130.572 68.3306 131.819 68.0835 132.987 67.5893C134.177 67.0727 135.21 66.3765 136.086 65.5005C136.962 64.6245 137.647 63.6025 138.142 62.4346C138.658 61.2666 138.917 60.02 138.917 58.6948V29.6865H148.586V58.6948ZM164.522 78H155.324V41.9165H157.548L160.58 46.1953C162.062 44.8477 163.747 43.8144 165.634 43.0957C167.521 42.3545 169.475 41.9839 171.496 41.9839H179.616V51.1479H171.496C170.53 51.1479 169.621 51.3276 168.767 51.687C167.914 52.0464 167.172 52.5405 166.543 53.1694C165.915 53.7983 165.42 54.5395 165.061 55.3931C164.702 56.2466 164.522 57.1562 164.522 58.1221V78ZM193.16 78H183.895V27.564H193.16V78Z" fill="black" fill-opacity="1"/>
</svg>